<svg width="60" height="60" viewBox="0 0 60 60" fill="none" xmlns="http://www.w3.org/2000/svg">
<path fill-rule="evenodd" clip-rule="evenodd" d="M52.2929 50.0756C57.2545 44.5661 60.0001 37.4144 60.0001 30H55.9575C55.9575 36.4153 53.5819 42.6033 49.2889 47.3704C44.9959 52.1376 39.0896 55.1461 32.7094 55.8157C26.3292 56.4853 19.927 54.7685 14.7378 50.9965C9.54863 47.2245 5.94006 41.6646 4.60818 35.3891C3.2763 29.1136 4.31547 22.5672 7.52523 17.0126C10.735 11.4581 15.888 7.28892 21.9901 5.3093C28.0923 3.32969 34.7114 3.6799 40.5707 6.29237C46.4299 8.90484 51.1142 13.5945 53.7199 19.4567L57.4139 17.8148C54.4024 11.0395 48.9886 5.61954 42.2169 2.60021C35.4452 -0.41912 27.7952 -0.823865 20.7427 1.46405C13.6902 3.75196 7.73471 8.57044 4.02507 14.99C0.315426 21.4096 -0.885576 28.9755 0.653728 36.2283C2.19303 43.4812 6.36359 49.907 12.3609 54.2665C18.3583 58.6259 25.7575 60.61 33.1313 59.8362C40.5052 59.0623 47.3313 55.5852 52.2929 50.0756ZM31.0546 43.0519L40.6555 33.5612C41.2446 32.9788 41.2501 32.0291 40.6677 31.44C40.0853 30.8508 39.1356 30.8453 38.5464 31.4277L31.5209 38.3726L31.6385 18.0087L28.6385 17.9914L28.521 38.3552L21.5761 31.3298C20.9937 30.7406 20.044 30.7351 19.4548 31.3175C18.8657 31.8999 18.8602 32.8496 19.4426 33.4388L28.9333 43.0397C29.5157 43.6288 30.4654 43.6343 31.0546 43.0519Z" fill="white"/>
</svg>
